<svg id="Calque_1" data-name="Calque 1" xmlns="http://www.w3.org/2000/svg" viewBox="0 0 405 409"></svg>
  <defs>
    <style>
      .cls-1 {
        fill: #fff;
      }
    </style>
  </defs>
  <title>loPlan de travail 3</title>
  <path class="cls-1" d="M202.37,397.29,153.55,351h-8.81L198,401.47a6.47,6.47,0,0,0,8.81,0L260,351h-8.81Z" />
  <path class="cls-1"
    d="M8,207.5,201.76,12,397.55,209.5,321.71,286h8.41l71.64-72.26a6,6,0,0,0,0-8.48L206,7.76a5.9,5.9,0,0,0-8.41,0L3.74,203.26a6,6,0,0,0,0,8.48L77.36,286h8.41Z" />
  <path class="cls-1"
    d="M37.82,207,201.25,42.19,366.06,208.43,289.16,286h5.61l74.09-74.74a4,4,0,0,0,0-5.66L204.06,39.36a3.95,3.95,0,0,0-5.61,0L35,204.22a4,4,0,0,0,0,5.65L110.49,286h5.61Z" />
  <path class="cls-1" d="M203.14,366.06,187.26,351h-5.88l18.82,17.84a4.29,4.29,0,0,0,5.87,0L224.89,351H219Z" />
  <path class="cls-1"
    d="M231.07,209.89a13.16,13.16,0,0,0-6.41-5.15,15.86,15.86,0,0,0,2.7-1.8,16.86,16.86,0,0,0,2.64-2.81l35.54-40.88H253.39a9.1,9.1,0,0,0-3.81.7,8.65,8.65,0,0,0-3,2.5L216,197.93a7.22,7.22,0,0,1-2.84,2.17,11.23,11.23,0,0,1-4.11.63h-1.84a1.27,1.27,0,0,0-1.1,1.22v8.51a1.27,1.27,0,0,0,1.21,1.23h2.87a18.82,18.82,0,0,1,2.67.17,8.32,8.32,0,0,1,2,.53,5.52,5.52,0,0,1,1.54,1,10.87,10.87,0,0,1,1.34,1.47l31.6,37.41a6.27,6.27,0,0,0,1,1.27,5.41,5.41,0,0,0,1.27.9,6.18,6.18,0,0,0,1.67.57,11.16,11.16,0,0,0,2.31.2H268Z" />
  <path class="cls-1"
    d="M136.63,182.56,189,250.29V232.73a10.31,10.31,0,0,0-2.17-6.34L136.7,161.65a6.22,6.22,0,0,0-2.07-2,7,7,0,0,0-2.81-.43h-7.35v95.93h8.64a3.85,3.85,0,0,0,3.85-3.86V189.38c0-1,0-2.12-.1-3.28S136.72,183.76,136.63,182.56Z" />
  <path class="cls-1"
    d="M204.53,162.16v-1.65h0a1.26,1.26,0,0,0-1.24-1.26h-9.95a1.27,1.27,0,0,0-1.24,1.25h0v1.65h0v58.55h0v31.66l.2.26a8.35,8.35,0,0,0,2.24,1.94,5.78,5.78,0,0,0,2.78.6h5.93a1.27,1.27,0,0,0,1.28-1.27v-.61h0v-.41h0v-41.2h0v-11h0V162.16Z" />
  <path class="cls-1" d="M41.13,298.15v36.76H36.38V298.15Z" />
  <path class="cls-1"
    d="M49.42,334.91V298.15H54.6l11.78,18.6A102.35,102.35,0,0,1,73,328.69l.11-.05c-.43-4.91-.54-9.39-.54-15.11V298.15H77v36.76h-4.8L60.55,316.25A114.78,114.78,0,0,1,53.68,304l-.17.06c.28,4.63.38,9,.38,15.16v15.71Z" />
  <path class="cls-1" d="M85.31,298.15h19.8v4h-15v12.22H104v3.92H90.06v16.64H85.31Z" />
  <path class="cls-1"
    d="M143.3,316.15c0,12.65-7.69,19.36-17.08,19.36-9.7,0-16.52-7.53-16.52-18.66,0-11.67,7.25-19.3,17.07-19.3C136.81,297.55,143.3,305.24,143.3,316.15Zm-28.53.6c0,7.85,4.25,14.89,11.73,14.89s11.78-6.93,11.78-15.28c0-7.3-3.82-14.94-11.73-14.94S114.77,308.67,114.77,316.75Z" />
  <path class="cls-1"
    d="M149.46,298.64a49.5,49.5,0,0,1,9.11-.77c5.07,0,8.35.93,10.64,3a9.18,9.18,0,0,1,2.89,7,9.66,9.66,0,0,1-6.93,9.39v.16c2.84,1,4.53,3.6,5.4,7.42,1.2,5.12,2.07,8.67,2.84,10.09H168.5c-.6-1-1.42-4.2-2.46-8.78-1.09-5.08-3-7-7.36-7.15h-4.47v15.93h-4.75Zm4.75,16.74h4.85c5.08,0,8.29-2.78,8.29-7,0-4.74-3.43-6.82-8.45-6.87a20.05,20.05,0,0,0-4.69.43Z" />
  <path class="cls-1"
    d="M209.79,318.76c-.27-5.12-.6-11.29-.54-15.87h-.17c-1.25,4.31-2.78,8.89-4.63,14L198,334.69h-3.6l-5.94-17.51c-1.75-5.18-3.22-9.93-4.25-14.29h-.11c-.11,4.58-.39,10.75-.71,16.25l-1,15.77h-4.52l2.56-36.76h6.06l6.27,17.78c1.53,4.52,2.78,8.56,3.71,12.38h.16c.93-3.71,2.24-7.75,3.87-12.38L207,298.15h6.05l2.29,36.76h-4.63Z" />
  <path class="cls-1"
    d="M228.07,323.35l-3.82,11.56h-4.91l12.49-36.76h5.73l12.54,36.76H245l-3.93-11.56Zm12.05-3.71-3.6-10.58c-.82-2.41-1.36-4.59-1.91-6.71h-.11c-.54,2.18-1.14,4.41-1.85,6.65l-3.6,10.64Z" />
  <path class="cls-1" d="M258.29,302.18H247.1v-4h27.22v4H263.09v32.73h-4.8Z" />
  <path class="cls-1" d="M283.16,298.15v36.76h-4.75V298.15Z" />
  <path class="cls-1"
    d="M321.78,340.31c-5-1.31-9.82-2.78-14.07-4.26a7.16,7.16,0,0,0-2.24-.54c-8.73-.33-16.2-6.76-16.2-18.6s7.2-19.36,17.13-19.36,16.47,7.74,16.47,18.6c0,9.43-4.36,15.49-10.47,17.61V334c3.65.93,7.63,1.8,10.74,2.35Zm-3.93-23.95c0-7.36-3.82-14.94-11.62-14.94-8,0-11.94,7.42-11.89,15.38,0,7.8,4.26,14.84,11.68,14.84C313.6,331.64,317.85,324.76,317.85,316.36Z" />
  <path class="cls-1"
    d="M333.78,298.15v21.76c0,8.24,3.66,11.73,8.56,11.73,5.46,0,9-3.6,9-11.73V298.15h4.8v21.43c0,11.29-5.95,15.93-13.91,15.93-7.53,0-13.2-4.31-13.2-15.71V298.15Z" />
  <path class="cls-1" d="M383.36,317.67H369.07v13.26H385v4H364.33V298.15h19.85v4H369.07v11.62h14.29Z" />
</svg>